<svg width="399" height="135" viewBox="0 0 399 135" fill="none" xmlns="http://www.w3.org/2000/svg">
<path d="M50.0625 41.25H35.8559C35.8125 42.0238 34.9939 42.5 33.9375 42.5H30.375C29.2799 42.5 28.4402 41.8176 28.4549 41.25H14.4375C13.9219 41.25 13.5 41.5312 13.5 41.875V42.5C13.5 43.875 15.1875 45 17.25 45H47.25C49.3125 45 51 43.875 51 42.5V41.875C51 41.5312 50.5781 41.25 50.0625 41.25ZM47.25 26.875C47.25 25.8438 45.9844 25 44.4375 25H20.0625C18.5156 25 17.25 25.8438 17.25 26.875V40H47.25V26.875ZM43.5 37.5H21V27.5H43.5V37.5Z" fill="black"/>
<path d="M94.8152 34.5H91.2924C91.0841 33.4867 90.7195 32.5966 90.1987 31.8295C89.6873 31.0625 89.0623 30.4186 88.3237 29.8977C87.5945 29.3674 86.7849 28.9697 85.8947 28.7045C85.0046 28.4394 84.0765 28.3068 83.1106 28.3068C81.3493 28.3068 79.7536 28.7519 78.3237 29.642C76.9032 30.5322 75.7716 31.8438 74.9288 33.5767C74.0955 35.3097 73.6788 37.4356 73.6788 39.9545C73.6788 42.4735 74.0955 44.5994 74.9288 46.3324C75.7716 48.0653 76.9032 49.3769 78.3237 50.267C79.7536 51.1572 81.3493 51.6023 83.1106 51.6023C84.0765 51.6023 85.0046 51.4697 85.8947 51.2045C86.7849 50.9394 87.5945 50.5464 88.3237 50.0256C89.0623 49.4953 89.6873 48.8466 90.1987 48.0795C90.7195 47.303 91.0841 46.4129 91.2924 45.4091H94.8152C94.55 46.8958 94.0671 48.2263 93.3663 49.4006C92.6655 50.5748 91.7943 51.5739 90.7527 52.3977C89.711 53.2121 88.5415 53.8324 87.2441 54.2585C85.9563 54.6847 84.5784 54.8977 83.1106 54.8977C80.6296 54.8977 78.4231 54.2917 76.4913 53.0795C74.5595 51.8674 73.0396 50.1439 71.9316 47.9091C70.8237 45.6742 70.2697 43.0227 70.2697 39.9545C70.2697 36.8864 70.8237 34.2348 71.9316 32C73.0396 29.7652 74.5595 28.0417 76.4913 26.8295C78.4231 25.6174 80.6296 25.0114 83.1106 25.0114C84.5784 25.0114 85.9563 25.2244 87.2441 25.6506C88.5415 26.0767 89.711 26.7017 90.7527 27.5256C91.7943 28.34 92.6655 29.3343 93.3663 30.5085C94.0671 31.6733 94.55 33.0038 94.8152 34.5ZM102.997 25.4091V54.5H99.6451V25.4091H102.997ZM117.593 54.9545C115.623 54.9545 113.895 54.4858 112.408 53.5483C110.931 52.6108 109.776 51.2992 108.942 49.6136C108.118 47.928 107.707 45.9583 107.707 43.7045C107.707 41.4318 108.118 39.4479 108.942 37.7528C109.776 36.0578 110.931 34.7415 112.408 33.804C113.895 32.8665 115.623 32.3977 117.593 32.3977C119.563 32.3977 121.286 32.8665 122.763 33.804C124.25 34.7415 125.405 36.0578 126.229 37.7528C127.063 39.4479 127.479 41.4318 127.479 43.7045C127.479 45.9583 127.063 47.928 126.229 49.6136C125.405 51.2992 124.25 52.6108 122.763 53.5483C121.286 54.4858 119.563 54.9545 117.593 54.9545ZM117.593 51.9432C119.089 51.9432 120.32 51.5597 121.286 50.7926C122.252 50.0256 122.967 49.017 123.431 47.767C123.895 46.517 124.127 45.1629 124.127 43.7045C124.127 42.2462 123.895 40.8873 123.431 39.6278C122.967 38.3684 122.252 37.3504 121.286 36.5739C120.32 35.7973 119.089 35.4091 117.593 35.4091C116.097 35.4091 114.866 35.7973 113.9 36.5739C112.934 37.3504 112.219 38.3684 111.755 39.6278C111.291 40.8873 111.059 42.2462 111.059 43.7045C111.059 45.1629 111.291 46.517 111.755 47.767C112.219 49.017 112.934 50.0256 113.9 50.7926C114.866 51.5597 116.097 51.9432 117.593 51.9432ZM145.938 45.5795V32.6818H149.291V54.5H145.938V50.8068H145.711C145.2 51.9148 144.404 52.857 143.325 53.6335C142.245 54.4006 140.882 54.7841 139.234 54.7841C137.87 54.7841 136.658 54.4858 135.598 53.8892C134.537 53.2831 133.704 52.3741 133.098 51.1619C132.491 49.9403 132.188 48.4015 132.188 46.5455V32.6818H135.541V46.3182C135.541 47.9091 135.986 49.178 136.876 50.125C137.776 51.072 138.921 51.5455 140.313 51.5455C141.147 51.5455 141.994 51.3324 142.856 50.9062C143.727 50.4801 144.456 49.8267 145.044 48.946C145.64 48.0653 145.938 46.9432 145.938 45.5795ZM163.261 54.9545C161.443 54.9545 159.838 54.4953 158.446 53.5767C157.054 52.6487 155.965 51.3419 155.179 49.6562C154.393 47.9612 154 45.9583 154 43.6477C154 41.3561 154.393 39.3674 155.179 37.6818C155.965 35.9962 157.059 34.6941 158.46 33.7756C159.862 32.857 161.481 32.3977 163.318 32.3977C164.739 32.3977 165.861 32.6345 166.685 33.108C167.518 33.572 168.152 34.1023 168.588 34.6989C169.033 35.286 169.379 35.7689 169.625 36.1477H169.909V25.4091H173.261V54.5H170.023V51.1477H169.625C169.379 51.5455 169.028 52.0473 168.574 52.6534C168.119 53.25 167.471 53.785 166.628 54.2585C165.785 54.7225 164.663 54.9545 163.261 54.9545ZM163.716 51.9432C165.061 51.9432 166.197 51.5928 167.125 50.892C168.053 50.1818 168.758 49.2017 169.241 47.9517C169.724 46.6922 169.966 45.2386 169.966 43.5909C169.966 41.9621 169.729 40.5369 169.256 39.3153C168.782 38.0843 168.081 37.1278 167.153 36.446C166.225 35.7547 165.079 35.4091 163.716 35.4091C162.295 35.4091 161.112 35.7737 160.165 36.5028C159.227 37.2225 158.522 38.2027 158.048 39.4432C157.584 40.6742 157.352 42.0568 157.352 43.5909C157.352 45.1439 157.589 46.5549 158.062 47.8239C158.545 49.0833 159.256 50.0871 160.193 50.8352C161.14 51.5739 162.314 51.9432 163.716 51.9432ZM214.164 34.5H210.641C210.433 33.4867 210.068 32.5966 209.548 31.8295C209.036 31.0625 208.411 30.4186 207.673 29.8977C206.943 29.3674 206.134 28.9697 205.244 28.7045C204.353 28.4394 203.425 28.3068 202.459 28.3068C200.698 28.3068 199.102 28.7519 197.673 29.642C196.252 30.5322 195.12 31.8438 194.278 33.5767C193.444 35.3097 193.028 37.4356 193.028 39.9545C193.028 42.4735 193.444 44.5994 194.278 46.3324C195.12 48.0653 196.252 49.3769 197.673 50.267C199.102 51.1572 200.698 51.6023 202.459 51.6023C203.425 51.6023 204.353 51.4697 205.244 51.2045C206.134 50.9394 206.943 50.5464 207.673 50.0256C208.411 49.4953 209.036 48.8466 209.548 48.0795C210.068 47.303 210.433 46.4129 210.641 45.4091H214.164C213.899 46.8958 213.416 48.2263 212.715 49.4006C212.014 50.5748 211.143 51.5739 210.102 52.3977C209.06 53.2121 207.89 53.8324 206.593 54.2585C205.305 54.6847 203.927 54.8977 202.459 54.8977C199.978 54.8977 197.772 54.2917 195.84 53.0795C193.908 51.8674 192.388 50.1439 191.281 47.9091C190.173 45.6742 189.619 43.0227 189.619 39.9545C189.619 36.8864 190.173 34.2348 191.281 32C192.388 29.7652 193.908 28.0417 195.84 26.8295C197.772 25.6174 199.978 25.0114 202.459 25.0114C203.927 25.0114 205.305 25.2244 206.593 25.6506C207.89 26.0767 209.06 26.7017 210.102 27.5256C211.143 28.34 212.014 29.3343 212.715 30.5085C213.416 31.6733 213.899 33.0038 214.164 34.5ZM227.858 54.9545C225.888 54.9545 224.16 54.4858 222.673 53.5483C221.196 52.6108 220.04 51.2992 219.207 49.6136C218.383 47.928 217.971 45.9583 217.971 43.7045C217.971 41.4318 218.383 39.4479 219.207 37.7528C220.04 36.0578 221.196 34.7415 222.673 33.804C224.16 32.8665 225.888 32.3977 227.858 32.3977C229.827 32.3977 231.551 32.8665 233.028 33.804C234.515 34.7415 235.67 36.0578 236.494 37.7528C237.327 39.4479 237.744 41.4318 237.744 43.7045C237.744 45.9583 237.327 47.928 236.494 49.6136C235.67 51.2992 234.515 52.6108 233.028 53.5483C231.551 54.4858 229.827 54.9545 227.858 54.9545ZM227.858 51.9432C229.354 51.9432 230.585 51.5597 231.551 50.7926C232.517 50.0256 233.232 49.017 233.696 47.767C234.16 46.517 234.392 45.1629 234.392 43.7045C234.392 42.2462 234.16 40.8873 233.696 39.6278C233.232 38.3684 232.517 37.3504 231.551 36.5739C230.585 35.7973 229.354 35.4091 227.858 35.4091C226.361 35.4091 225.13 35.7973 224.164 36.5739C223.199 37.3504 222.484 38.3684 222.02 39.6278C221.556 40.8873 221.324 42.2462 221.324 43.7045C221.324 45.1629 221.556 46.517 222.02 47.767C222.484 49.017 223.199 50.0256 224.164 50.7926C225.13 51.5597 226.361 51.9432 227.858 51.9432ZM242.453 54.5V32.6818H245.692V36.0909H245.976C246.43 34.9261 247.164 34.0218 248.178 33.3778C249.191 32.7244 250.408 32.3977 251.828 32.3977C253.268 32.3977 254.465 32.7244 255.422 33.3778C256.388 34.0218 257.141 34.9261 257.68 36.0909H257.908C258.466 34.964 259.304 34.0691 260.422 33.4062C261.539 32.7339 262.879 32.3977 264.442 32.3977C266.393 32.3977 267.988 33.0085 269.229 34.2301C270.469 35.4422 271.09 37.3314 271.09 39.8977V54.5H267.737V39.8977C267.737 38.2879 267.297 37.1373 266.416 36.446C265.536 35.7547 264.499 35.4091 263.305 35.4091C261.771 35.4091 260.583 35.8731 259.74 36.8011C258.897 37.7197 258.476 38.8845 258.476 40.2955V54.5H255.067V39.5568C255.067 38.3163 254.664 37.3172 253.859 36.5597C253.054 35.7926 252.018 35.4091 250.749 35.4091C249.877 35.4091 249.063 35.6411 248.305 36.1051C247.557 36.5691 246.951 37.2131 246.487 38.0369C246.033 38.8513 245.805 39.7936 245.805 40.8636V54.5H242.453ZM276.811 62.6818V32.6818H280.049V36.1477H280.447C280.693 35.7689 281.034 35.286 281.47 34.6989C281.915 34.1023 282.549 33.572 283.373 33.108C284.207 32.6345 285.334 32.3977 286.754 32.3977C288.591 32.3977 290.21 32.857 291.612 33.7756C293.013 34.6941 294.107 35.9962 294.893 37.6818C295.679 39.3674 296.072 41.3561 296.072 43.6477C296.072 45.9583 295.679 47.9612 294.893 49.6562C294.107 51.3419 293.018 52.6487 291.626 53.5767C290.234 54.4953 288.629 54.9545 286.811 54.9545C285.409 54.9545 284.287 54.7225 283.444 54.2585C282.602 53.785 281.953 53.25 281.498 52.6534C281.044 52.0473 280.693 51.5455 280.447 51.1477H280.163V62.6818H276.811ZM280.106 43.5909C280.106 45.2386 280.348 46.6922 280.831 47.9517C281.314 49.2017 282.019 50.1818 282.947 50.892C283.875 51.5928 285.012 51.9432 286.356 51.9432C287.758 51.9432 288.927 51.5739 289.865 50.8352C290.812 50.0871 291.522 49.0833 291.995 47.8239C292.478 46.5549 292.72 45.1439 292.72 43.5909C292.72 42.0568 292.483 40.6742 292.01 39.4432C291.546 38.2027 290.84 37.2225 289.893 36.5028C288.956 35.7737 287.777 35.4091 286.356 35.4091C284.993 35.4091 283.847 35.7547 282.919 36.446C281.991 37.1278 281.29 38.0843 280.816 39.3153C280.343 40.5369 280.106 41.9621 280.106 43.5909ZM314.528 45.5795V32.6818H317.88V54.5H314.528V50.8068H314.301C313.789 51.9148 312.994 52.857 311.914 53.6335C310.835 54.4006 309.471 54.7841 307.823 54.7841C306.46 54.7841 305.247 54.4858 304.187 53.8892C303.126 53.2831 302.293 52.3741 301.687 51.1619C301.081 49.9403 300.778 48.4015 300.778 46.5455V32.6818H304.13V46.3182C304.13 47.9091 304.575 49.178 305.465 50.125C306.365 51.072 307.511 51.5455 308.903 51.5455C309.736 51.5455 310.584 51.3324 311.445 50.9062C312.317 50.4801 313.046 49.8267 313.633 48.946C314.229 48.0653 314.528 46.9432 314.528 45.5795ZM333.101 32.6818V35.5227H321.794V32.6818H333.101ZM325.089 27.4545H328.442V48.25C328.442 49.197 328.579 49.9072 328.853 50.3807C329.138 50.8447 329.497 51.1572 329.933 51.3182C330.378 51.4697 330.847 51.5455 331.339 51.5455C331.709 51.5455 332.012 51.5265 332.248 51.4886C332.485 51.4413 332.674 51.4034 332.817 51.375L333.498 54.3864C333.271 54.4716 332.954 54.5568 332.547 54.642C332.139 54.7367 331.623 54.7841 330.998 54.7841C330.051 54.7841 329.123 54.5805 328.214 54.1733C327.315 53.7661 326.567 53.1458 325.97 52.3125C325.383 51.4792 325.089 50.428 325.089 49.1591V27.4545ZM337.735 54.5V32.6818H341.088V54.5H337.735ZM339.44 29.0455C338.786 29.0455 338.223 28.8229 337.749 28.3778C337.285 27.9328 337.053 27.3977 337.053 26.7727C337.053 26.1477 337.285 25.6127 337.749 25.1676C338.223 24.7225 338.786 24.5 339.44 24.5C340.093 24.5 340.652 24.7225 341.116 25.1676C341.589 25.6127 341.826 26.1477 341.826 26.7727C341.826 27.3977 341.589 27.9328 341.116 28.3778C340.652 28.8229 340.093 29.0455 339.44 29.0455ZM350.172 41.375V54.5H346.819V32.6818H350.058V36.0909H350.342C350.853 34.983 351.63 34.0928 352.672 33.4205C353.713 32.7386 355.058 32.3977 356.706 32.3977C358.183 32.3977 359.476 32.7008 360.584 33.3068C361.692 33.9034 362.553 34.8125 363.169 36.0341C363.784 37.2462 364.092 38.7803 364.092 40.6364V54.5H360.74V40.8636C360.74 39.1496 360.295 37.8144 359.405 36.858C358.514 35.892 357.293 35.4091 355.74 35.4091C354.67 35.4091 353.713 35.6411 352.871 36.1051C352.037 36.5691 351.379 37.2462 350.896 38.1364C350.413 39.0265 350.172 40.1061 350.172 41.375ZM378.617 63.1364C376.997 63.1364 375.605 62.928 374.441 62.5114C373.276 62.1042 372.305 61.5644 371.529 60.892C370.762 60.2292 370.151 59.5189 369.696 58.7614L372.367 56.8864C372.67 57.2841 373.053 57.7386 373.517 58.25C373.981 58.7708 374.616 59.2206 375.421 59.5994C376.235 59.9877 377.3 60.1818 378.617 60.1818C380.378 60.1818 381.832 59.7557 382.977 58.9034C384.123 58.0511 384.696 56.7159 384.696 54.8977V50.4659H384.412C384.166 50.8636 383.816 51.3561 383.361 51.9432C382.916 52.5208 382.272 53.0369 381.429 53.4915C380.596 53.9366 379.469 54.1591 378.048 54.1591C376.287 54.1591 374.706 53.7424 373.304 52.9091C371.912 52.0758 370.809 50.8636 369.994 49.2727C369.19 47.6818 368.787 45.75 368.787 43.4773C368.787 41.2424 369.18 39.2964 369.966 37.6392C370.752 35.9725 371.846 34.6847 373.247 33.7756C374.649 32.857 376.268 32.3977 378.105 32.3977C379.526 32.3977 380.653 32.6345 381.486 33.108C382.329 33.572 382.973 34.1023 383.418 34.6989C383.872 35.286 384.223 35.7689 384.469 36.1477H384.81V32.6818H388.048V55.125C388.048 57 387.622 58.5246 386.77 59.6989C385.927 60.8826 384.791 61.7491 383.361 62.2983C381.941 62.857 380.359 63.1364 378.617 63.1364ZM378.503 51.1477C379.848 51.1477 380.984 50.84 381.912 50.2244C382.84 49.6089 383.546 48.7235 384.029 47.5682C384.512 46.4129 384.753 45.0303 384.753 43.4205C384.753 41.8485 384.516 40.4612 384.043 39.2585C383.569 38.0559 382.869 37.1136 381.941 36.4318C381.012 35.75 379.867 35.4091 378.503 35.4091C377.083 35.4091 375.899 35.7689 374.952 36.4886C374.014 37.2083 373.309 38.1742 372.835 39.3864C372.371 40.5985 372.139 41.9432 372.139 43.4205C372.139 44.9356 372.376 46.2756 372.85 47.4403C373.333 48.5956 374.043 49.5047 374.98 50.1676C375.927 50.821 377.101 51.1477 378.503 51.1477Z" fill="black"/>
<rect x="60" y="77" width="279" height="56" rx="10" fill="#2A54D4"/>
<g filter="url(#filter0_d_1379_171)">
<path d="M94.8202 100C94.5077 99.0436 94.0958 98.1866 93.5844 97.429C93.0825 96.6619 92.4812 96.0085 91.7804 95.4688C91.0891 94.929 90.3031 94.517 89.4225 94.233C88.5418 93.9489 87.5759 93.8068 86.5247 93.8068C84.8012 93.8068 83.234 94.2519 81.823 95.142C80.412 96.0322 79.2899 97.3438 78.4565 99.0767C77.6232 100.81 77.2065 102.936 77.2065 105.455C77.2065 107.973 77.628 110.099 78.4708 111.832C79.3136 113.565 80.4547 114.877 81.894 115.767C83.3334 116.657 84.9528 117.102 86.752 117.102C88.4187 117.102 89.8865 116.747 91.1554 116.037C92.4338 115.317 93.4281 114.304 94.1384 112.997C94.8581 111.681 95.2179 110.133 95.2179 108.352L96.2975 108.58H87.5475V105.455H98.627V108.58C98.627 110.975 98.1156 113.059 97.0929 114.83C96.0797 116.6 94.6781 117.973 92.8884 118.949C91.1081 119.915 89.0626 120.398 86.752 120.398C84.1762 120.398 81.913 119.792 79.9622 118.58C78.0209 117.367 76.5058 115.644 75.4168 113.409C74.3372 111.174 73.7975 108.523 73.7975 105.455C73.7975 103.153 74.1052 101.084 74.7208 99.2472C75.3458 97.4006 76.2264 95.8286 77.3628 94.5312C78.4992 93.2339 79.8439 92.2396 81.3969 91.5483C82.9499 90.857 84.6592 90.5114 86.5247 90.5114C88.0588 90.5114 89.4887 90.7434 90.8145 91.2074C92.1497 91.6619 93.3382 92.3106 94.3798 93.1534C95.431 93.9867 96.3069 94.9858 97.0077 96.1506C97.7084 97.3059 98.1914 98.589 98.4565 100H94.8202ZM112.946 120.455C110.843 120.455 109.03 119.991 107.505 119.062C105.99 118.125 104.821 116.818 103.997 115.142C103.182 113.456 102.775 111.496 102.775 109.261C102.775 107.027 103.182 105.057 103.997 103.352C104.821 101.638 105.966 100.303 107.434 99.3466C108.911 98.3807 110.635 97.8977 112.605 97.8977C113.741 97.8977 114.863 98.0871 115.971 98.4659C117.079 98.8447 118.088 99.4602 118.997 100.312C119.906 101.155 120.63 102.273 121.17 103.665C121.71 105.057 121.98 106.771 121.98 108.807V110.227H105.161V107.33H118.571C118.571 106.098 118.324 105 117.832 104.034C117.349 103.068 116.658 102.306 115.758 101.747C114.868 101.188 113.817 100.909 112.605 100.909C111.269 100.909 110.114 101.241 109.139 101.903C108.173 102.557 107.429 103.409 106.909 104.46C106.388 105.511 106.127 106.638 106.127 107.841V109.773C106.127 111.42 106.411 112.817 106.98 113.963C107.557 115.099 108.357 115.966 109.38 116.562C110.403 117.15 111.591 117.443 112.946 117.443C113.826 117.443 114.622 117.32 115.332 117.074C116.052 116.818 116.672 116.439 117.193 115.938C117.714 115.426 118.116 114.792 118.4 114.034L121.639 114.943C121.298 116.042 120.725 117.008 119.92 117.841C119.115 118.665 118.121 119.309 116.937 119.773C115.753 120.227 114.423 120.455 112.946 120.455ZM136.16 98.1818V101.023H124.853V98.1818H136.16ZM128.148 92.9545H131.501V113.75C131.501 114.697 131.638 115.407 131.913 115.881C132.197 116.345 132.557 116.657 132.992 116.818C133.437 116.97 133.906 117.045 134.398 117.045C134.768 117.045 135.071 117.027 135.307 116.989C135.544 116.941 135.734 116.903 135.876 116.875L136.557 119.886C136.33 119.972 136.013 120.057 135.606 120.142C135.199 120.237 134.682 120.284 134.057 120.284C133.11 120.284 132.182 120.08 131.273 119.673C130.374 119.266 129.626 118.646 129.029 117.812C128.442 116.979 128.148 115.928 128.148 114.659V92.9545ZM168 98.1818C167.83 96.7424 167.138 95.625 165.926 94.8295C164.714 94.0341 163.227 93.6364 161.466 93.6364C160.178 93.6364 159.051 93.8447 158.085 94.2614C157.129 94.678 156.381 95.2509 155.841 95.9801C155.311 96.7093 155.045 97.5379 155.045 98.4659C155.045 99.2424 155.23 99.91 155.599 100.469C155.978 101.018 156.461 101.477 157.048 101.847C157.635 102.206 158.251 102.505 158.895 102.741C159.539 102.969 160.131 103.153 160.67 103.295L163.625 104.091C164.383 104.29 165.225 104.564 166.153 104.915C167.091 105.265 167.986 105.743 168.838 106.349C169.7 106.946 170.41 107.713 170.969 108.651C171.527 109.588 171.807 110.739 171.807 112.102C171.807 113.674 171.395 115.095 170.571 116.364C169.757 117.633 168.563 118.641 166.991 119.389C165.429 120.137 163.53 120.511 161.295 120.511C159.212 120.511 157.408 120.175 155.883 119.503C154.368 118.83 153.175 117.893 152.304 116.69C151.442 115.488 150.955 114.091 150.841 112.5H154.477C154.572 113.598 154.941 114.508 155.585 115.227C156.239 115.937 157.062 116.468 158.057 116.818C159.061 117.159 160.14 117.33 161.295 117.33C162.64 117.33 163.848 117.112 164.918 116.676C165.988 116.231 166.835 115.616 167.46 114.83C168.085 114.034 168.398 113.106 168.398 112.045C168.398 111.08 168.128 110.294 167.588 109.688C167.048 109.081 166.338 108.589 165.457 108.21C164.577 107.831 163.625 107.5 162.602 107.216L159.023 106.193C156.75 105.54 154.951 104.607 153.625 103.395C152.299 102.183 151.636 100.597 151.636 98.6364C151.636 97.0076 152.077 95.5871 152.957 94.375C153.848 93.1534 155.041 92.2064 156.537 91.5341C158.043 90.8523 159.723 90.5114 161.58 90.5114C163.455 90.5114 165.121 90.8475 166.58 91.5199C168.038 92.1828 169.193 93.0919 170.045 94.2472C170.907 95.4025 171.362 96.714 171.409 98.1818H168ZM186.225 98.1818V101.023H174.918V98.1818H186.225ZM178.213 92.9545H181.566V113.75C181.566 114.697 181.703 115.407 181.978 115.881C182.262 116.345 182.622 116.657 183.057 116.818C183.502 116.97 183.971 117.045 184.463 117.045C184.833 117.045 185.136 117.027 185.373 116.989C185.609 116.941 185.799 116.903 185.941 116.875L186.623 119.886C186.395 119.972 186.078 120.057 185.671 120.142C185.264 120.237 184.748 120.284 184.123 120.284C183.176 120.284 182.248 120.08 181.338 119.673C180.439 119.266 179.691 118.646 179.094 117.812C178.507 116.979 178.213 115.928 178.213 114.659V92.9545ZM197.28 120.511C195.897 120.511 194.643 120.251 193.516 119.73C192.389 119.2 191.494 118.438 190.831 117.443C190.168 116.439 189.837 115.227 189.837 113.807C189.837 112.557 190.083 111.544 190.575 110.767C191.068 109.981 191.726 109.366 192.55 108.92C193.374 108.475 194.283 108.144 195.277 107.926C196.281 107.699 197.289 107.519 198.303 107.386C199.628 107.216 200.703 107.088 201.527 107.003C202.36 106.908 202.966 106.752 203.345 106.534C203.733 106.316 203.928 105.937 203.928 105.398V105.284C203.928 103.883 203.544 102.794 202.777 102.017C202.019 101.241 200.869 100.852 199.325 100.852C197.725 100.852 196.47 101.203 195.561 101.903C194.652 102.604 194.013 103.352 193.643 104.148L190.462 103.011C191.03 101.686 191.787 100.653 192.734 99.9148C193.691 99.1667 194.733 98.6458 195.859 98.3523C196.996 98.0492 198.113 97.8977 199.212 97.8977C199.912 97.8977 200.717 97.983 201.626 98.1534C202.545 98.3144 203.43 98.6506 204.283 99.1619C205.144 99.6733 205.859 100.445 206.428 101.477C206.996 102.509 207.28 103.892 207.28 105.625V120H203.928V117.045H203.757C203.53 117.519 203.151 118.026 202.621 118.565C202.09 119.105 201.385 119.564 200.504 119.943C199.624 120.322 198.549 120.511 197.28 120.511ZM197.791 117.5C199.117 117.5 200.234 117.24 201.143 116.719C202.062 116.198 202.753 115.526 203.217 114.702C203.691 113.878 203.928 113.011 203.928 112.102V109.034C203.786 109.205 203.473 109.361 202.99 109.503C202.517 109.635 201.967 109.754 201.342 109.858C200.727 109.953 200.126 110.038 199.538 110.114C198.961 110.18 198.492 110.237 198.132 110.284C197.261 110.398 196.447 110.582 195.689 110.838C194.941 111.084 194.335 111.458 193.871 111.96C193.416 112.453 193.189 113.125 193.189 113.977C193.189 115.142 193.62 116.023 194.482 116.619C195.353 117.206 196.456 117.5 197.791 117.5ZM212.99 120V98.1818H216.229V101.477H216.456C216.854 100.398 217.574 99.5218 218.615 98.8494C219.657 98.1771 220.831 97.8409 222.138 97.8409C222.384 97.8409 222.692 97.8456 223.061 97.8551C223.431 97.8646 223.71 97.8788 223.9 97.8977V101.307C223.786 101.278 223.525 101.236 223.118 101.179C222.721 101.113 222.299 101.08 221.854 101.08C220.793 101.08 219.847 101.302 219.013 101.747C218.189 102.183 217.536 102.789 217.053 103.565C216.579 104.332 216.343 105.208 216.343 106.193V120H212.99ZM238.321 98.1818V101.023H227.014V98.1818H238.321ZM230.31 92.9545H233.662V113.75C233.662 114.697 233.799 115.407 234.074 115.881C234.358 116.345 234.718 116.657 235.153 116.818C235.599 116.97 236.067 117.045 236.56 117.045C236.929 117.045 237.232 117.027 237.469 116.989C237.706 116.941 237.895 116.903 238.037 116.875L238.719 119.886C238.492 119.972 238.174 120.057 237.767 120.142C237.36 120.237 236.844 120.284 236.219 120.284C235.272 120.284 234.344 120.08 233.435 119.673C232.535 119.266 231.787 118.646 231.19 117.812C230.603 116.979 230.31 115.928 230.31 114.659V92.9545ZM251.869 120.455C249.767 120.455 247.953 119.991 246.429 119.062C244.914 118.125 243.744 116.818 242.92 115.142C242.106 113.456 241.699 111.496 241.699 109.261C241.699 107.027 242.106 105.057 242.92 103.352C243.744 101.638 244.89 100.303 246.358 99.3466C247.835 98.3807 249.558 97.8977 251.528 97.8977C252.665 97.8977 253.787 98.0871 254.895 98.4659C256.003 98.8447 257.011 99.4602 257.92 100.312C258.829 101.155 259.554 102.273 260.094 103.665C260.633 105.057 260.903 106.771 260.903 108.807V110.227H244.085V107.33H257.494C257.494 106.098 257.248 105 256.755 104.034C256.272 103.068 255.581 102.306 254.682 101.747C253.791 101.188 252.74 100.909 251.528 100.909C250.193 100.909 249.038 101.241 248.062 101.903C247.096 102.557 246.353 103.409 245.832 104.46C245.311 105.511 245.051 106.638 245.051 107.841V109.773C245.051 111.42 245.335 112.817 245.903 113.963C246.481 115.099 247.281 115.966 248.304 116.562C249.326 117.15 250.515 117.443 251.869 117.443C252.75 117.443 253.545 117.32 254.255 117.074C254.975 116.818 255.595 116.439 256.116 115.938C256.637 115.426 257.04 114.792 257.324 114.034L260.562 114.943C260.221 116.042 259.648 117.008 258.844 117.841C258.039 118.665 257.044 119.309 255.861 119.773C254.677 120.227 253.346 120.455 251.869 120.455ZM273.833 120.455C272.015 120.455 270.41 119.995 269.018 119.077C267.626 118.149 266.537 116.842 265.751 115.156C264.965 113.461 264.572 111.458 264.572 109.148C264.572 106.856 264.965 104.867 265.751 103.182C266.537 101.496 267.631 100.194 269.032 99.2756C270.434 98.357 272.053 97.8977 273.89 97.8977C275.31 97.8977 276.433 98.1345 277.257 98.608C278.09 99.072 278.724 99.6023 279.16 100.199C279.605 100.786 279.951 101.269 280.197 101.648H280.481V90.9091H283.833V120H280.595V116.648H280.197C279.951 117.045 279.6 117.547 279.146 118.153C278.691 118.75 278.042 119.285 277.2 119.759C276.357 120.223 275.235 120.455 273.833 120.455ZM274.288 117.443C275.632 117.443 276.769 117.093 277.697 116.392C278.625 115.682 279.33 114.702 279.813 113.452C280.296 112.192 280.538 110.739 280.538 109.091C280.538 107.462 280.301 106.037 279.828 104.815C279.354 103.584 278.653 102.628 277.725 101.946C276.797 101.255 275.651 100.909 274.288 100.909C272.867 100.909 271.684 101.274 270.737 102.003C269.799 102.723 269.094 103.703 268.62 104.943C268.156 106.174 267.924 107.557 267.924 109.091C267.924 110.644 268.161 112.055 268.634 113.324C269.117 114.583 269.828 115.587 270.765 116.335C271.712 117.074 272.886 117.443 274.288 117.443Z" fill="#FFF3F3"/>
</g>
<path d="M315.5 92.8906C322.189 92.8906 327.609 98.3105 327.609 105C327.609 111.689 322.189 117.109 315.5 117.109C308.811 117.109 303.391 111.689 303.391 105C303.391 98.3105 308.811 92.8906 315.5 92.8906ZM309.836 107.148H315.5V110.61C315.5 111.133 316.135 111.396 316.501 111.025L322.082 105.415C322.312 105.186 322.312 104.819 322.082 104.59L316.501 98.9746C316.13 98.6035 315.5 98.8672 315.5 99.3896V102.852H309.836C309.514 102.852 309.25 103.115 309.25 103.438V106.562C309.25 106.885 309.514 107.148 309.836 107.148Z" fill="white"/>
<defs>
<filter id="filter0_d_1379_171" x="69.7975" y="90.5117" width="218.036" height="38" filterUnits="userSpaceOnUse" color-interpolation-filters="sRGB">
<feFlood flood-opacity="0" result="BackgroundImageFix"/>
<feColorMatrix in="SourceAlpha" type="matrix" values="0 0 0 0 0 0 0 0 0 0 0 0 0 0 0 0 0 0 127 0" result="hardAlpha"/>
<feOffset dy="4"/>
<feGaussianBlur stdDeviation="2"/>
<feComposite in2="hardAlpha" operator="out"/>
<feColorMatrix type="matrix" values="0 0 0 0 0 0 0 0 0 0 0 0 0 0 0 0 0 0 0.25 0"/>
<feBlend mode="normal" in2="BackgroundImageFix" result="effect1_dropShadow_1379_171"/>
<feBlend mode="normal" in="SourceGraphic" in2="effect1_dropShadow_1379_171" result="shape"/>
</filter>
</defs>
</svg>
