<svg width="422" height="48" viewBox="0 0 422 48" fill="none" xmlns="http://www.w3.org/2000/svg">
<g clip-path="url(#clip0_1377_162)">
<path d="M18.2872 39.9684L14.4747 38.8621C14.0747 38.7496 13.8497 38.3309 13.9622 37.9309L22.4935 8.54338C22.606 8.14338 23.0247 7.91838 23.4247 8.03088L27.2372 9.13713C27.6372 9.24963 27.8622 9.66838 27.7497 10.0684L19.2185 39.4559C19.0997 39.8559 18.6872 40.0871 18.2872 39.9684ZM11.1622 32.9559L13.881 30.0559C14.1685 29.7496 14.1497 29.2621 13.831 28.9809L8.16849 23.9996L13.831 19.0184C14.1497 18.7371 14.1747 18.2496 13.881 17.9434L11.1622 15.0434C10.881 14.7434 10.406 14.7246 10.0997 15.0121L1.09349 23.4496C0.774744 23.7434 0.774744 24.2496 1.09349 24.5434L10.0997 32.9871C10.406 33.2746 10.881 33.2621 11.1622 32.9559ZM31.6122 32.9934L40.6185 24.5496C40.9372 24.2559 40.9372 23.7496 40.6185 23.4559L31.6122 15.0059C31.3122 14.7246 30.8372 14.7371 30.5497 15.0371L27.831 17.9371C27.5435 18.2434 27.5622 18.7309 27.881 19.0121L33.5435 23.9996L27.881 28.9809C27.5622 29.2621 27.5372 29.7496 27.831 30.0559L30.5497 32.9559C30.831 33.2621 31.306 33.2746 31.6122 32.9934Z" fill="black"/>
</g>
<path d="M74.6855 17.1818C74.5151 15.7424 73.8238 14.625 72.6117 13.8295C71.3995 13.0341 69.9128 12.6364 68.1514 12.6364C66.8636 12.6364 65.7367 12.8447 64.7708 13.2614C63.8143 13.678 63.0662 14.2509 62.5264 14.9801C61.9961 15.7093 61.731 16.5379 61.731 17.4659C61.731 18.2424 61.9156 18.91 62.285 19.4688C62.6637 20.018 63.1467 20.4773 63.7338 20.8466C64.3209 21.2064 64.9365 21.5047 65.5804 21.7415C66.2244 21.9687 66.8162 22.1534 67.356 22.2955L70.3105 23.0909C71.0681 23.2898 71.9109 23.5644 72.8389 23.9148C73.7764 24.2652 74.6713 24.7434 75.5236 25.3494C76.3853 25.946 77.0956 26.7131 77.6543 27.6506C78.213 28.5881 78.4923 29.7386 78.4923 31.1023C78.4923 32.6742 78.0804 34.0947 77.2566 35.3636C76.4422 36.6326 75.249 37.6411 73.677 38.3892C72.1145 39.1373 70.2158 39.5114 67.981 39.5114C65.8976 39.5114 64.0937 39.1752 62.569 38.5028C61.0539 37.8305 59.8607 36.893 58.9895 35.6903C58.1278 34.4877 57.6401 33.0909 57.5264 31.5H61.1628C61.2575 32.5985 61.6268 33.5076 62.2708 34.2273C62.9242 34.9375 63.748 35.4678 64.7423 35.8182C65.7461 36.1591 66.8257 36.3295 67.981 36.3295C69.3257 36.3295 70.5331 36.1117 71.6031 35.6761C72.6732 35.2311 73.5208 34.6155 74.1458 33.8295C74.7708 33.0341 75.0833 32.1061 75.0833 31.0455C75.0833 30.0795 74.8134 29.2936 74.2736 28.6875C73.7338 28.0814 73.0236 27.589 72.1429 27.2102C71.2622 26.8314 70.3105 26.5 69.2878 26.2159L65.7083 25.1932C63.4355 24.5398 61.6363 23.607 60.3105 22.3949C58.9848 21.1828 58.3219 19.5966 58.3219 17.6364C58.3219 16.0076 58.7622 14.5871 59.6429 13.375C60.5331 12.1534 61.7262 11.2064 63.2225 10.5341C64.7281 9.85227 66.409 9.51136 68.2651 9.51136C70.1401 9.51136 71.8067 9.84754 73.2651 10.5199C74.7234 11.1828 75.8787 12.0919 76.731 13.2472C77.5927 14.4025 78.0473 15.714 78.0946 17.1818H74.6855ZM92.2853 39.4545C90.3156 39.4545 88.5874 38.9858 87.1007 38.0483C85.6234 37.1108 84.4681 35.7992 83.6348 34.1136C82.8109 32.428 82.399 30.4583 82.399 28.2045C82.399 25.9318 82.8109 23.9479 83.6348 22.2528C84.4681 20.5578 85.6234 19.2415 87.1007 18.304C88.5874 17.3665 90.3156 16.8977 92.2853 16.8977C94.255 16.8977 95.9785 17.3665 97.4558 18.304C98.9425 19.2415 100.098 20.5578 100.922 22.2528C101.755 23.9479 102.172 25.9318 102.172 28.2045C102.172 30.4583 101.755 32.428 100.922 34.1136C100.098 35.7992 98.9425 37.1108 97.4558 38.0483C95.9785 38.9858 94.255 39.4545 92.2853 39.4545ZM92.2853 36.4432C93.7815 36.4432 95.0126 36.0597 95.9785 35.2926C96.9444 34.5256 97.6594 33.517 98.1234 32.267C98.5874 31.017 98.8194 29.6629 98.8194 28.2045C98.8194 26.7462 98.5874 25.3873 98.1234 24.1278C97.6594 22.8684 96.9444 21.8504 95.9785 21.0739C95.0126 20.2973 93.7815 19.9091 92.2853 19.9091C90.7891 19.9091 89.5581 20.2973 88.5922 21.0739C87.6262 21.8504 86.9113 22.8684 86.4473 24.1278C85.9833 25.3873 85.7512 26.7462 85.7512 28.2045C85.7512 29.6629 85.9833 31.017 86.4473 32.267C86.9113 33.517 87.6262 34.5256 88.5922 35.2926C89.5581 36.0597 90.7891 36.4432 92.2853 36.4432ZM116.597 17.1818V20.0227H104.835V17.1818H116.597ZM108.358 39V14.1705C108.358 12.9205 108.652 11.8788 109.239 11.0455C109.826 10.2121 110.588 9.58712 111.526 9.17045C112.463 8.75379 113.453 8.54545 114.495 8.54545C115.318 8.54545 115.991 8.61174 116.512 8.74432C117.032 8.87689 117.421 9 117.676 9.11364L116.71 12.0114C116.54 11.9545 116.303 11.8835 116 11.7983C115.707 11.7131 115.318 11.6705 114.835 11.6705C113.727 11.6705 112.927 11.9498 112.435 12.5085C111.952 13.0672 111.71 13.8864 111.71 14.9659V39H108.358ZM130.376 17.1818V20.0227H119.069V17.1818H130.376ZM122.364 11.9545H125.716V32.75C125.716 33.697 125.854 34.4072 126.128 34.8807C126.413 35.3447 126.772 35.6572 127.208 35.8182C127.653 35.9697 128.122 36.0455 128.614 36.0455C128.984 36.0455 129.287 36.0265 129.523 35.9886C129.76 35.9413 129.949 35.9034 130.091 35.875L130.773 38.8864C130.546 38.9716 130.229 39.0568 129.822 39.142C129.414 39.2367 128.898 39.2841 128.273 39.2841C127.326 39.2841 126.398 39.0805 125.489 38.6733C124.59 38.2661 123.841 37.6458 123.245 36.8125C122.658 35.9792 122.364 34.928 122.364 33.6591V11.9545ZM139.953 39L133.306 17.1818H136.828L141.544 33.8864H141.772L146.431 17.1818H150.01L154.612 33.8295H154.84L159.556 17.1818H163.078L156.431 39H153.135L148.362 22.2386H148.022L143.249 39H139.953ZM173.523 39.5114C172.14 39.5114 170.885 39.2509 169.758 38.7301C168.632 38.1998 167.737 37.4375 167.074 36.4432C166.411 35.4394 166.079 34.2273 166.079 32.8068C166.079 31.5568 166.326 30.5436 166.818 29.767C167.311 28.9811 167.969 28.3655 168.793 27.9205C169.616 27.4754 170.525 27.1439 171.52 26.9261C172.524 26.6989 173.532 26.5189 174.545 26.3864C175.871 26.2159 176.946 26.0881 177.77 26.0028C178.603 25.9081 179.209 25.7519 179.588 25.5341C179.976 25.3163 180.17 24.9375 180.17 24.3977V24.2841C180.17 22.8826 179.787 21.7936 179.02 21.017C178.262 20.2405 177.112 19.8523 175.568 19.8523C173.968 19.8523 172.713 20.2027 171.804 20.9034C170.895 21.6042 170.256 22.3523 169.886 23.1477L166.704 22.0114C167.273 20.6856 168.03 19.6534 168.977 18.9148C169.934 18.1667 170.975 17.6458 172.102 17.3523C173.239 17.0492 174.356 16.8977 175.454 16.8977C176.155 16.8977 176.96 16.983 177.869 17.1534C178.788 17.3144 179.673 17.6506 180.525 18.1619C181.387 18.6733 182.102 19.4451 182.67 20.4773C183.239 21.5095 183.523 22.892 183.523 24.625V39H180.17V36.0455H180C179.773 36.5189 179.394 37.0256 178.864 37.5653C178.333 38.1051 177.628 38.5644 176.747 38.9432C175.866 39.322 174.792 39.5114 173.523 39.5114ZM174.034 36.5C175.36 36.5 176.477 36.2396 177.386 35.7188C178.305 35.1979 178.996 34.5256 179.46 33.7017C179.934 32.8778 180.17 32.0114 180.17 31.1023V28.0341C180.028 28.2045 179.716 28.3608 179.233 28.5028C178.759 28.6354 178.21 28.7538 177.585 28.858C176.97 28.9527 176.368 29.0379 175.781 29.1136C175.204 29.1799 174.735 29.2367 174.375 29.2841C173.504 29.3977 172.689 29.5824 171.932 29.8381C171.184 30.0843 170.578 30.4583 170.114 30.9602C169.659 31.4527 169.432 32.125 169.432 32.9773C169.432 34.142 169.863 35.0227 170.724 35.6193C171.596 36.2064 172.699 36.5 174.034 36.5ZM189.233 39V17.1818H192.472V20.4773H192.699C193.097 19.3977 193.817 18.5218 194.858 17.8494C195.9 17.1771 197.074 16.8409 198.381 16.8409C198.627 16.8409 198.935 16.8456 199.304 16.8551C199.674 16.8646 199.953 16.8788 200.142 16.8977V20.3068C200.029 20.2784 199.768 20.2358 199.361 20.179C198.963 20.1127 198.542 20.0795 198.097 20.0795C197.036 20.0795 196.089 20.3021 195.256 20.7472C194.432 21.1828 193.779 21.7888 193.296 22.5653C192.822 23.3324 192.586 24.2083 192.586 25.1932V39H189.233ZM212.192 39.4545C210.089 39.4545 208.276 38.9905 206.751 38.0625C205.236 37.125 204.067 35.8182 203.243 34.142C202.428 32.4564 202.021 30.4962 202.021 28.2614C202.021 26.0265 202.428 24.0568 203.243 22.3523C204.067 20.6383 205.213 19.303 206.68 18.3466C208.158 17.3807 209.881 16.8977 211.851 16.8977C212.987 16.8977 214.109 17.0871 215.217 17.4659C216.325 17.8447 217.334 18.4602 218.243 19.3125C219.152 20.1553 219.876 21.2727 220.416 22.6648C220.956 24.0568 221.226 25.7708 221.226 27.8068V29.2273H204.408V26.3295H217.817C217.817 25.0985 217.571 24 217.078 23.0341C216.595 22.0682 215.904 21.3059 215.004 20.7472C214.114 20.1884 213.063 19.9091 211.851 19.9091C210.516 19.9091 209.36 20.2405 208.385 20.9034C207.419 21.5568 206.676 22.4091 206.155 23.4602C205.634 24.5114 205.374 25.6383 205.374 26.8409V28.7727C205.374 30.4205 205.658 31.8172 206.226 32.9631C206.803 34.0994 207.604 34.9659 208.626 35.5625C209.649 36.1496 210.838 36.4432 212.192 36.4432C213.072 36.4432 213.868 36.3201 214.578 36.0739C215.298 35.8182 215.918 35.4394 216.439 34.9375C216.96 34.4261 217.362 33.7917 217.646 33.0341L220.885 33.9432C220.544 35.0417 219.971 36.0076 219.166 36.8409C218.361 37.6648 217.367 38.3087 216.183 38.7727C215 39.2273 213.669 39.4545 212.192 39.4545ZM246.191 39H237.214V9.90909H246.589C249.411 9.90909 251.826 10.4915 253.833 11.6562C255.841 12.8116 257.38 14.4735 258.45 16.642C259.52 18.8011 260.055 21.3864 260.055 24.3977C260.055 27.428 259.515 30.0369 258.435 32.2244C257.356 34.4025 255.784 36.0786 253.719 37.2528C251.655 38.4176 249.146 39 246.191 39ZM240.737 35.875H245.964C248.369 35.875 250.362 35.411 251.944 34.483C253.525 33.5549 254.704 32.2339 255.481 30.5199C256.257 28.8059 256.646 26.7652 256.646 24.3977C256.646 22.0492 256.262 20.0275 255.495 18.3324C254.728 16.6278 253.582 15.321 252.058 14.4119C250.533 13.4934 248.634 13.0341 246.362 13.0341H240.737V35.875ZM274.249 39.4545C272.147 39.4545 270.333 38.9905 268.809 38.0625C267.293 37.125 266.124 35.8182 265.3 34.142C264.486 32.4564 264.079 30.4962 264.079 28.2614C264.079 26.0265 264.486 24.0568 265.3 22.3523C266.124 20.6383 267.27 19.303 268.738 18.3466C270.215 17.3807 271.938 16.8977 273.908 16.8977C275.044 16.8977 276.167 17.0871 277.275 17.4659C278.383 17.8447 279.391 18.4602 280.3 19.3125C281.209 20.1553 281.934 21.2727 282.473 22.6648C283.013 24.0568 283.283 25.7708 283.283 27.8068V29.2273H266.465V26.3295H279.874C279.874 25.0985 279.628 24 279.135 23.0341C278.652 22.0682 277.961 21.3059 277.061 20.7472C276.171 20.1884 275.12 19.9091 273.908 19.9091C272.573 19.9091 271.418 20.2405 270.442 20.9034C269.476 21.5568 268.733 22.4091 268.212 23.4602C267.691 24.5114 267.431 25.6383 267.431 26.8409V28.7727C267.431 30.4205 267.715 31.8172 268.283 32.9631C268.861 34.0994 269.661 34.9659 270.684 35.5625C271.706 36.1496 272.895 36.4432 274.249 36.4432C275.13 36.4432 275.925 36.3201 276.635 36.0739C277.355 35.8182 277.975 35.4394 278.496 34.9375C279.017 34.4261 279.419 33.7917 279.704 33.0341L282.942 33.9432C282.601 35.0417 282.028 36.0076 281.223 36.8409C280.418 37.6648 279.424 38.3087 278.24 38.7727C277.057 39.2273 275.726 39.4545 274.249 39.4545ZM305.151 17.1818L297.083 39H293.674L285.606 17.1818H289.242L295.265 34.5682H295.492L301.515 17.1818H305.151ZM317.535 39.4545C315.432 39.4545 313.619 38.9905 312.094 38.0625C310.579 37.125 309.41 35.8182 308.586 34.142C307.771 32.4564 307.364 30.4962 307.364 28.2614C307.364 26.0265 307.771 24.0568 308.586 22.3523C309.41 20.6383 310.555 19.303 312.023 18.3466C313.5 17.3807 315.224 16.8977 317.194 16.8977C318.33 16.8977 319.452 17.0871 320.56 17.4659C321.668 17.8447 322.677 18.4602 323.586 19.3125C324.495 20.1553 325.219 21.2727 325.759 22.6648C326.299 24.0568 326.569 25.7708 326.569 27.8068V29.2273H309.75V26.3295H323.16C323.16 25.0985 322.913 24 322.421 23.0341C321.938 22.0682 321.247 21.3059 320.347 20.7472C319.457 20.1884 318.406 19.9091 317.194 19.9091C315.858 19.9091 314.703 20.2405 313.728 20.9034C312.762 21.5568 312.018 22.4091 311.498 23.4602C310.977 24.5114 310.716 25.6383 310.716 26.8409V28.7727C310.716 30.4205 311 31.8172 311.569 32.9631C312.146 34.0994 312.947 34.9659 313.969 35.5625C314.992 36.1496 316.18 36.4432 317.535 36.4432C318.415 36.4432 319.211 36.3201 319.921 36.0739C320.641 35.8182 321.261 35.4394 321.782 34.9375C322.303 34.4261 322.705 33.7917 322.989 33.0341L326.228 33.9432C325.887 35.0417 325.314 36.0076 324.509 36.8409C323.704 37.6648 322.71 38.3087 321.526 38.7727C320.342 39.2273 319.012 39.4545 317.535 39.4545ZM334.612 9.90909V39H331.26V9.90909H334.612ZM349.208 39.4545C347.238 39.4545 345.51 38.9858 344.023 38.0483C342.546 37.1108 341.391 35.7992 340.557 34.1136C339.733 32.428 339.322 30.4583 339.322 28.2045C339.322 25.9318 339.733 23.9479 340.557 22.2528C341.391 20.5578 342.546 19.2415 344.023 18.304C345.51 17.3665 347.238 16.8977 349.208 16.8977C351.178 16.8977 352.901 17.3665 354.378 18.304C355.865 19.2415 357.02 20.5578 357.844 22.2528C358.678 23.9479 359.094 25.9318 359.094 28.2045C359.094 30.4583 358.678 32.428 357.844 34.1136C357.02 35.7992 355.865 37.1108 354.378 38.0483C352.901 38.9858 351.178 39.4545 349.208 39.4545ZM349.208 36.4432C350.704 36.4432 351.935 36.0597 352.901 35.2926C353.867 34.5256 354.582 33.517 355.046 32.267C355.51 31.017 355.742 29.6629 355.742 28.2045C355.742 26.7462 355.51 25.3873 355.046 24.1278C354.582 22.8684 353.867 21.8504 352.901 21.0739C351.935 20.2973 350.704 19.9091 349.208 19.9091C347.712 19.9091 346.481 20.2973 345.515 21.0739C344.549 21.8504 343.834 22.8684 343.37 24.1278C342.906 25.3873 342.674 26.7462 342.674 28.2045C342.674 29.6629 342.906 31.017 343.37 32.267C343.834 33.517 344.549 34.5256 345.515 35.2926C346.481 36.0597 347.712 36.4432 349.208 36.4432ZM363.803 47.1818V17.1818H367.042V20.6477H367.44C367.686 20.2689 368.027 19.786 368.463 19.1989C368.908 18.6023 369.542 18.072 370.366 17.608C371.199 17.1345 372.326 16.8977 373.747 16.8977C375.584 16.8977 377.203 17.357 378.605 18.2756C380.006 19.1941 381.1 20.4962 381.886 22.1818C382.672 23.8674 383.065 25.8561 383.065 28.1477C383.065 30.4583 382.672 32.4612 381.886 34.1562C381.1 35.8419 380.011 37.1487 378.619 38.0767C377.227 38.9953 375.622 39.4545 373.803 39.4545C372.402 39.4545 371.28 39.2225 370.437 38.7585C369.594 38.285 368.946 37.75 368.491 37.1534C368.036 36.5473 367.686 36.0455 367.44 35.6477H367.156V47.1818H363.803ZM367.099 28.0909C367.099 29.7386 367.34 31.1922 367.823 32.4517C368.306 33.7017 369.012 34.6818 369.94 35.392C370.868 36.0928 372.004 36.4432 373.349 36.4432C374.75 36.4432 375.92 36.0739 376.857 35.3352C377.804 34.5871 378.515 33.5833 378.988 32.3239C379.471 31.0549 379.713 29.6439 379.713 28.0909C379.713 26.5568 379.476 25.1742 379.002 23.9432C378.538 22.7027 377.833 21.7225 376.886 21.0028C375.948 20.2737 374.769 19.9091 373.349 19.9091C371.985 19.9091 370.839 20.2547 369.911 20.946C368.983 21.6278 368.283 22.5843 367.809 23.8153C367.336 25.0369 367.099 26.4621 367.099 28.0909ZM396.918 39.4545C394.816 39.4545 393.002 38.9905 391.478 38.0625C389.963 37.125 388.793 35.8182 387.969 34.142C387.155 32.4564 386.748 30.4962 386.748 28.2614C386.748 26.0265 387.155 24.0568 387.969 22.3523C388.793 20.6383 389.939 19.303 391.407 18.3466C392.884 17.3807 394.608 16.8977 396.577 16.8977C397.714 16.8977 398.836 17.0871 399.944 17.4659C401.052 17.8447 402.06 18.4602 402.969 19.3125C403.878 20.1553 404.603 21.2727 405.143 22.6648C405.682 24.0568 405.952 25.7708 405.952 27.8068V29.2273H389.134V26.3295H402.543C402.543 25.0985 402.297 24 401.805 23.0341C401.322 22.0682 400.63 21.3059 399.731 20.7472C398.841 20.1884 397.789 19.9091 396.577 19.9091C395.242 19.9091 394.087 20.2405 393.111 20.9034C392.145 21.5568 391.402 22.4091 390.881 23.4602C390.36 24.5114 390.1 25.6383 390.1 26.8409V28.7727C390.1 30.4205 390.384 31.8172 390.952 32.9631C391.53 34.0994 392.33 34.9659 393.353 35.5625C394.376 36.1496 395.564 36.4432 396.918 36.4432C397.799 36.4432 398.594 36.3201 399.305 36.0739C400.024 35.8182 400.645 35.4394 401.165 34.9375C401.686 34.4261 402.089 33.7917 402.373 33.0341L405.611 33.9432C405.27 35.0417 404.698 36.0076 403.893 36.8409C403.088 37.6648 402.093 38.3087 400.91 38.7727C399.726 39.2273 398.395 39.4545 396.918 39.4545ZM410.644 39V17.1818H413.882V20.4773H414.11C414.507 19.3977 415.227 18.5218 416.269 17.8494C417.31 17.1771 418.485 16.8409 419.791 16.8409C420.038 16.8409 420.345 16.8456 420.715 16.8551C421.084 16.8646 421.363 16.8788 421.553 16.8977V20.3068C421.439 20.2784 421.179 20.2358 420.772 20.179C420.374 20.1127 419.952 20.0795 419.507 20.0795C418.447 20.0795 417.5 20.3021 416.666 20.7472C415.843 21.1828 415.189 21.7888 414.706 22.5653C414.233 23.3324 413.996 24.2083 413.996 25.1932V39H410.644Z" fill="black"/>
<defs>
<clipPath id="clip0_1377_162">
<rect width="40" height="40" fill="white" transform="translate(0.856018 4)"/>
</clipPath>
</defs>
</svg>
